<?xml version="1.0" encoding="utf-8"?>
<!-- Generator: Adobe Illustrator 19.2.0, SVG Export Plug-In . SVG Version: 6.00 Build 0)  -->
<svg version="1.1" id="Layer_1" xmlns="http://www.w3.org/2000/svg" xmlns:xlink="http://www.w3.org/1999/xlink" x="0px" y="0px"
	 viewBox="0 0 527.3 174.1" style="enable-background:new 0 0 527.3 174.1;" xml:space="preserve">
<style type="text/css">
	.st0{fill:#223B71;}
	.st1{fill:#DD5538;}
	.st2{fill:#223972;}
	.st3{fill:#DE5430;}
</style>
<g>
	<g>
		<polygon class="st0" points="267.9,94.5 279.2,55.3 279.7,55.3 291.3,94.5 310.5,94.5 291.3,26.4 268.3,26.4 249.2,94.5 		"/>
		<polygon class="st0" points="344.9,94.5 364.5,26.4 342.3,26.4 324.1,94.5 		"/>
		<polygon class="st0" points="235.8,94.5 218,26.4 194.8,26.4 214.4,94.5 		"/>
		<polygon class="st0" points="301.7,130.1 307.1,148.4 329.3,148.4 334.6,130.1 		"/>
		<polygon class="st0" points="224.7,130.1 229.9,148.4 252.3,148.4 257.6,130.1 		"/>
	</g>
	<g>
		<polygon class="st1" points="365,94.5 365,94.4 415.7,94.4 415.7,77 365,77 365,44.5 423.6,44.5 423.6,26.4 342.4,26.4 
			342.4,94.5 		"/>
		<rect x="342.4" y="130.1" class="st1" width="84.1" height="18.2"/>
	</g>
	<g>
		<path class="st0" d="M513.4,94.5c-0.3-0.3-0.5-0.6-0.8-0.9c-4.7-5.1-11-8.2-19-9.3v-0.3c6.3-1.7,11.4-4.9,15.2-9.6
			c3.8-4.7,5.7-10.5,5.7-17.5c0-10.7-3.5-18.4-10.5-23.3c-7-4.8-16.4-7.2-28.1-7.2h-52.2v68.1H513.4z M445.5,43.4h25.1
			c7.1,0,12.5,1.3,16,3.9c3.6,2.6,5.3,6.7,5.3,12.3c0,5.9-1.7,10.3-5.2,13.2c-3.4,2.9-8.4,4.4-15,4.4h-26.3V43.4z"/>
		<path class="st0" d="M472.8,130.1c-0.2,0-0.4,0-0.6,0h-26.7v0h-21.9v18.2h52.7c13,0,23.4-2.8,31.4-8.4c3.7-2.6,6.5-5.9,8.5-9.9
			H472.8z"/>
	</g>
</g>
<g>
	<path class="st0" d="M207.1,103.3c-1.1-0.3-2.6-0.5-4.8-0.5h-7.5v3.3h2.5V120h-2.5v3.3h8.8V120h-2.5v-4.2h0.9c1.8,0,3-0.1,3.9-0.2
		c0.9-0.2,1.7-0.5,2.4-0.9c0.7-0.5,1.4-1.2,1.8-2.1c0.5-0.9,0.7-2,0.7-3.2c0-1.5-0.4-2.8-1.1-3.9
		C209.1,104.3,208.2,103.6,207.1,103.3z M207.1,109.2c0,1.3-0.3,2.1-1,2.6c-0.7,0.5-1.9,0.7-3.8,0.7h-1.3v-6.5h1.4
		c1.3,0,2.3,0.1,2.8,0.2c0.5,0.1,0.9,0.4,1.2,1C207,107.8,207.1,108.4,207.1,109.2z"/>
	<path class="st0" d="M230.5,113.5c2.6-0.8,3.9-2.5,3.9-5.2c0-1.3-0.4-2.5-1-3.4c-0.7-0.9-1.6-1.5-2.7-1.8c-1-0.3-2.4-0.4-4.1-0.4
		h-8.4v3.3h2.7V120h-2.7v3.3h9V120h-2.5v-5.9h2.1l4.5,9.2h4.9V120h-2.6L230.5,113.5z M230.4,108.3c0,0.7-0.1,1.2-0.4,1.6
		c-0.3,0.4-0.6,0.6-1.1,0.7c-0.5,0.1-1.3,0.2-2.4,0.2h-1.9v-4.7h2.1c1,0,1.7,0.1,2.2,0.2c0.4,0.1,0.8,0.3,1,0.7
		C230.3,107.3,230.4,107.8,230.4,108.3z"/>
	<path class="st0" d="M253.6,102.5c-3.1,0-5.7,1-7.6,3c-1.9,2-2.9,4.5-2.9,7.5c0,1.8,0.4,3.6,1.2,5.3c0.8,1.7,2.1,3,3.8,4
		c1.7,0.9,3.5,1.4,5.5,1.4c3.1,0,5.7-1,7.7-3c2-2,3-4.6,3-7.6c0-3-1-5.5-3-7.5C259.3,103.5,256.7,102.5,253.6,102.5z M253.6,120.2
		c-2,0-3.5-0.7-4.7-2.1c-1.2-1.4-1.8-3.1-1.8-5.2c0-2,0.6-3.7,1.8-5c1.2-1.3,2.7-2,4.6-2c1.9,0,3.5,0.7,4.7,2c1.3,1.4,1.9,3.1,1.9,5
		c0,2-0.6,3.7-1.9,5.1C257,119.5,255.5,120.2,253.6,120.2z"/>
	<path class="st0" d="M272.4,106.1h2.5v16.7c0,1.6-0.2,2.3-0.4,2.6c-0.2,0.3-0.6,0.5-1.3,0.5c-0.6,0-1.3-0.1-2-0.3l-0.5-0.1v3.6
		l0.3,0.1c0.7,0.2,1.5,0.3,2.4,0.3c1.2,0,2.3-0.3,3.2-0.9c0.9-0.6,1.5-1.3,1.8-2.2c0.2-0.8,0.3-2,0.3-3.5v-16.8h2.5v-3.3h-8.8V106.1
		z"/>
	<polygon class="st0" points="288.5,106.1 291,106.1 291,120 288.5,120 288.5,123.3 305.6,123.3 305.6,116.5 302.4,116.5 302.4,120 
		294.8,120 294.8,114.4 302.1,114.4 302.1,111.1 294.8,111.1 294.8,106.1 302.4,106.1 302.4,109.6 305.6,109.6 305.6,102.8 
		288.5,102.8 	"/>
	<path class="st0" d="M330.8,114.8c-0.5,1.7-1.3,3.1-2.5,4c-1.2,0.9-2.5,1.4-3.9,1.4c-1.8,0-3.2-0.6-4.5-2c-1.3-1.3-1.9-3.1-1.9-5.2
		c0-2,0.6-3.8,1.8-5.1c1.2-1.3,2.7-2,4.5-2c1.2,0,2.4,0.3,3.5,1c1.1,0.7,1.9,1.6,2.5,2.8l0.1,0.2h3.2v-7.2h-3.4v1.4
		c-1.7-1.1-3.7-1.7-6.1-1.7c-3,0-5.5,1-7.4,2.9c-1.9,1.9-2.8,4.5-2.8,7.8c0,2.9,0.9,5.5,2.8,7.5c1.9,2,4.4,3,7.5,3
		c2.3,0,4.5-0.6,6.3-1.9c1.8-1.3,3.1-3,3.7-5.3l0.1-0.3l-3.3-1.8L330.8,114.8z"/>
	<polygon class="st0" points="341.9,111.1 345.2,111.1 345.2,106.1 348.4,106.1 348.4,120 345.9,120 345.9,123.3 354.8,123.3 
		354.8,120 352.2,120 352.2,106.1 355.4,106.1 355.4,111.1 358.7,111.1 358.7,102.8 341.9,102.8 	"/>
	<polygon class="st0" points="391.4,106.1 393.7,106.1 393.7,110.9 386,110.9 386,106.1 388.3,106.1 388.3,102.8 380,102.8 
		380,106.1 382.2,106.1 382.2,120 380,120 380,123.3 388.3,123.3 388.3,120 386,120 386,114.2 393.7,114.2 393.7,120 391.4,120 
		391.4,123.3 399.8,123.3 399.8,120 397.5,120 397.5,106.1 399.8,106.1 399.8,102.8 391.4,102.8 	"/>
	<polygon class="st0" points="407.4,106.1 409.9,106.1 409.9,120 407.4,120 407.4,123.3 424.6,123.3 424.6,116.5 421.3,116.5 
		421.3,120 413.7,120 413.7,114.4 421.1,114.4 421.1,111.1 413.7,111.1 413.7,106.1 421.3,106.1 421.3,109.6 424.6,109.6 
		424.6,102.8 407.4,102.8 	"/>
	<polygon class="st0" points="443.7,120 438.5,120 438.5,106.1 440.9,106.1 440.9,102.8 432,102.8 432,106.1 434.6,106.1 434.6,120 
		432,120 432,123.3 447.3,123.3 447.3,113.3 443.7,113.3 	"/>
	<path class="st0" d="M466.4,103.3c-1.1-0.3-2.6-0.5-4.8-0.5h-7.5v3.3h2.5V120h-2.5v3.3h8.8V120h-2.5v-4.2h0.9c1.8,0,3-0.1,3.9-0.2
		c0.9-0.2,1.7-0.5,2.4-0.9c0.7-0.5,1.4-1.2,1.8-2.1c0.5-0.9,0.7-2,0.7-3.2c0-1.5-0.4-2.8-1.1-3.9
		C468.4,104.3,467.5,103.6,466.4,103.3z M466.4,109.2c0,1.3-0.3,2.1-1,2.6c-0.7,0.5-1.9,0.7-3.8,0.7h-1.3v-6.5h1.4
		c1.3,0,2.3,0.1,2.8,0.2c0.5,0.1,0.9,0.4,1.2,1C466.3,107.8,466.4,108.4,466.4,109.2z"/>
	<polygon class="st0" points="477.9,106.1 480.4,106.1 480.4,120 477.9,120 477.9,123.3 495.1,123.3 495.1,116.5 491.8,116.5 
		491.8,120 484.2,120 484.2,114.4 491.5,114.4 491.5,111.1 484.2,111.1 484.2,106.1 491.8,106.1 491.8,109.6 495.1,109.6 
		495.1,102.8 477.9,102.8 	"/>
	<path class="st0" d="M517.9,120l-3.1-6.5c2.6-0.8,3.9-2.5,3.9-5.2c0-1.3-0.4-2.5-1-3.4c-0.7-0.9-1.6-1.5-2.7-1.8
		c-1-0.3-2.4-0.4-4.1-0.4h-8.4v3.3h2.7V120h-2.7v3.3h9V120h-2.5v-5.9h2.1l4.5,9.2h4.9V120H517.9z M514.7,108.3
		c0,0.7-0.1,1.2-0.4,1.6c-0.3,0.4-0.6,0.6-1.1,0.7c-0.5,0.1-1.3,0.2-2.4,0.2h-1.9v-4.7h2.1c1,0,1.7,0.1,2.2,0.2
		c0.4,0.1,0.8,0.3,1,0.7C514.6,107.3,514.7,107.8,514.7,108.3z"/>
</g>
<g>
	<path class="st2" d="M127.6,32c7-1.8,13.8-4.3,20.3-7.5c-10.9-10.6-24.4-18.2-39.2-22C117.3,10.7,123.7,20.8,127.6,32z"/>
	<path class="st2" d="M91.7,145.2c2.5-1.6,4-3.2,4.8-4.4c-1.7-0.1-4,0.1-6.4,0.4v4.9C90.7,145.8,91.2,145.5,91.7,145.2z"/>
	<path class="st2" d="M136.9,83.8h37.3c-0.7-20.2-8.4-39.5-21.8-54.6c-7.2,3.7-14.8,6.6-22.7,8.6C134.3,52.7,136.7,68.2,136.9,83.8z
		"/>
	<path class="st2" d="M165.1,109.3c2.8-2.2,8.1-9.5,8.1-9.5c0.5-3.2,0.8-6.5,0.9-9.8h-37.3c-0.1,8.9-0.9,17.7-2.4,26.4
		C156.4,119.1,161.1,112.4,165.1,109.3z"/>
	<path class="st2" d="M123.6,39.4c-11,2.4-22.2,3.7-33.4,3.9v40.6h40.4C130.5,68.7,128.1,53.8,123.6,39.4z"/>
	<path class="st2" d="M121.9,114c2.2,0.6,4.3,1.1,6.3,1.5c1.5-8.4,2.3-16.9,2.4-25.5H90.2v21C99.6,110.2,110.4,110.8,121.9,114z"/>
	<path class="st2" d="M90.2,0v37c10.5-0.2,21-1.3,31.3-3.6C114.1,14.5,102.9,1.8,90.2,0z"/>
	<path class="st2" d="M11.6,108.1c-0.1-1.1-0.2-2.2-0.2-3c0-0.2,0-0.5,0-0.7c0.1-1.4,0.6-2.7,1.4-3.8c1.7-2.3,4.5-3.6,7.6-3.4
		c0.5,0,0.9,0.1,1.4,0.2c5.1,1,9.5,4.5,13.3,10.5c0.6-0.3,1.2-0.5,1.8-0.6c0.4-0.1,0.8-0.1,1.4-0.2c-0.7-5.7-1-11.4-1.1-17.1H0
		c0.2,6.6,1.2,13.2,2.9,19.5c0.2-0.1,0.3-0.2,0.5-0.4C4.7,108.2,7.7,106.7,11.6,108.1z"/>
	<path class="st2" d="M44.5,37.9c-7.8-2.1-15.4-4.9-22.7-8.6C8.4,44.3,0.7,63.6,0,83.8h37.3C37.4,68.2,39.9,52.7,44.5,37.9z"/>
	<path class="st2" d="M84,37V0C71.3,1.8,60.1,14.5,52.7,33.5C63,35.7,73.5,36.9,84,37z"/>
	<path class="st2" d="M47.2,111.7c3.5,4.6,5.4,12.4,6.4,18.7c0-0.3,0.1-0.5,0.1-0.8c0.8-3.8,3.8-7.3,8.9-10.4
		c5.1-3.1,12.4-5.9,21.3-7.4V90H43.5c0.1,6.5,0.5,12.9,1.4,19.3C45.7,109.9,46.5,110.7,47.2,111.7z"/>
	<path class="st2" d="M82.9,142.2c-11.5,1.7-21.4,3.2-26.7-2.4c0,0-0.1-0.1-0.1-0.1c-0.5,0.1-1,0.2-1.5,0.3c0.1,1.8,0.1,3.5,0,5.1
		c0,0.1,0.1,0.1,0.1,0.2c4.5,2,17,6.8,29.2,3.4V142C83.6,142.1,83.3,142.1,82.9,142.2z"/>
	<path class="st2" d="M43.5,83.8H84V43.2c-11.2-0.2-22.4-1.5-33.4-3.9C46.1,53.8,43.7,68.7,43.5,83.8z"/>
	<path class="st2" d="M65.5,2.5C50.7,6.3,37.2,13.9,26.3,24.5c6.5,3.2,13.3,5.7,20.3,7.5C50.4,20.8,56.9,10.7,65.5,2.5z"/>
</g>
<path class="st3" d="M170,113.4c-1.1,1.3-14.8,16.3-49.8,6.7c-32.1-8.8-58.7,3.4-60.2,10.8c-3.4,16.3,42.9-4.9,43.7,7.8
	c0.6,9.8-22.4,26-51.9,12.2C21.9,137,13.5,110,7,114.4c-1.4,0.9-1,4.4,0.9,9.2c13.9,29.8,44,50.5,79.1,50.5c2.2,0,4.4-0.1,6.6-0.2
	c0.4,0,0.9-0.1,1.3-0.1c8.6-1,16.2-2.8,23-5.3C142.6,159,161.9,138.7,170,113.4z"/>
<path class="st3" d="M47.9,146.8c1.6-3.2-1.5-34.9-9.7-33.3c-2.8,0.6,5.4,27.8,6.1,29.9C45.2,146.1,47.9,146.8,47.9,146.8z"/>
<path class="st3" d="M40.1,142c0,0-5.7-35.7-19.5-38.3c-0.2,0-0.4-0.1-0.6-0.1c-0.8-0.1-1.5,0.2-1.9,0.7c-0.2,0.2-0.2,0.5-0.3,0.8
	c0,0.1,0,0.1,0,0.2c-0.1,4.3,2.7,15.6,6.2,20.7C28.5,132.3,40.1,142,40.1,142z"/>
</svg>
